HIERARCHY
ROOT Hips
{
	OFFSET	0	0	0
	CHANNELS 6  Xposition Yposition Zposition Xrotation Yrotation Zrotation
	JOINT Spine
	{
		OFFSET	0	3.83113	0.769104
		CHANNELS 3  Xrotation Yrotation Zrotation
		JOINT Spine1
		{
			OFFSET	0	6.55885	-1.17122
			CHANNELS 3  Xrotation Yrotation Zrotation
			JOINT Spine2
			{
				OFFSET	0	4.97184	0.532907
				CHANNELS 3  Xrotation Yrotation Zrotation
				JOINT Spine3
				{
					OFFSET	0	5.94982	1.76855
					CHANNELS 3  Xrotation Yrotation Zrotation
					JOINT Spine4
					{
						OFFSET	0	8.8076	-0.901843
						CHANNELS 3  Xrotation Yrotation Zrotation
						JOINT Neck
						{
							OFFSET	0	4.20469	-2.94563
							CHANNELS 3  Xrotation Yrotation Zrotation
							JOINT Head
							{
								OFFSET	0	5.04798	-1.51088
								CHANNELS 3  Xrotation Yrotation Zrotation
								End Site
								{
									OFFSET	0	10.5293	-0.509482
								}
							}
						}
					}
					JOINT LeftShoulder
					{
						OFFSET	-2.52984	10.705	-5.04798
						CHANNELS 3  Xrotation Yrotation Zrotation
						JOINT LeftArm
						{
							OFFSET	-5.5644	-1.51088	1.93839
							CHANNELS 3  Xrotation Yrotation Zrotation
							JOINT LeftForeArm
							{
								OFFSET	-18.7429	-0.85546	1.33785
								CHANNELS 3  Xrotation Yrotation Zrotation
								JOINT LeftHand
								{
									OFFSET	-15.2343	-1.05278	1.08741
									CHANNELS 3  Xrotation Yrotation Zrotation
									End Site
									{
										OFFSET	-5.55977	-0.384213	0.396825
									}
								}
							}
						}
					}
					JOINT RightShoulder
					{
						OFFSET	2.52984	10.705	-5.04798
						CHANNELS 3  Xrotation Yrotation Zrotation
						JOINT RightArm
						{
							OFFSET	5.5644	-1.51088	1.93839
							CHANNELS 3  Xrotation Yrotation Zrotation
							JOINT RightForeArm
							{
								OFFSET	18.7429	-0.85546	1.33785
								CHANNELS 3  Xrotation Yrotation Zrotation
								JOINT RightHand
								{
									OFFSET	15.2343	-1.05278	1.08741
									CHANNELS 3  Xrotation Yrotation Zrotation
									End Site
									{
										OFFSET	5.55977	-0.384213	0.396825
									}
								}
							}
						}
					}
				}
			}
		}
	}
	JOINT LeftUpLeg
	{
		OFFSET	-5.23653	-1.91556	-0.384552
		CHANNELS 3  Xrotation Yrotation Zrotation
		JOINT LeftLeg
		{
			OFFSET	-1.23325	-24.165	-0.377751
			CHANNELS 3  Xrotation Yrotation Zrotation
			JOINT LeftFoot
			{
				OFFSET	-1.19817	-22.0862	1.89941
				CHANNELS 3  Xrotation Yrotation Zrotation
				JOINT LeftToeBase
				{
					OFFSET	0	-2.78986	-7.40988
					CHANNELS 3  Xrotation Yrotation Zrotation
					End Site
					{
						OFFSET	0	-1.11595	-4.46378
					}
				}
			}
		}
	}
	JOINT RightUpLeg
	{
		OFFSET	5.23653	-1.91556	-0.384552
		CHANNELS 3  Xrotation Yrotation Zrotation
		JOINT RightLeg
		{
			OFFSET	1.23325	-24.165	-0.377751
			CHANNELS 3  Xrotation Yrotation Zrotation
			JOINT RightFoot
			{
				OFFSET	1.19817	-22.0862	1.89941
				CHANNELS 3  Xrotation Yrotation Zrotation
				JOINT RightToeBase
				{
					OFFSET	0	-2.78986	-7.40988
					CHANNELS 3  Xrotation Yrotation Zrotation
					End Site
					{
						OFFSET	0	-1.11595	-4.46378
					}
				}
			}
		}
	}
}
MOTION
Frames: 13
Frame Time: 0.033333
 0 12.9259 4.71957 -0 0 -0 -0 0 -0 -0 0 -0 -0 0 -0 -0 0 -0 -0 0 -0 -0 0 -0 -0 0 -0 -0 0 -0 -0 0 -0 -0 0 -0 -0 0 -0 -0 0 -0 -0 0 -0 -0 0 -0 -0 0 -0 -0 0 -0 -0 0 -0 -0 0 -0 -0 0 -0 -0 0 -0 -0 0 -0 -0 0 -0 -0 0 -0
 19.6371 54.5084 -43.4859 136.432 63.8067 -143.39 8.41396e-05 -0.00698732 0.689909 171.882 -179.986 -178.85 171.973 -179.958 -178.85 174.861 -179.993 -179.31 176.656 -179.987 -179.77 178.198 178.031 178.725 179.452 175.308 -179.987 177.548 -151.81 174.669 33.8776 31.3399 13.9718 18.5069 -122.061 15.6988 -0 22.5718 -34.5358 173.729 -177.305 -168.077 28.1416 15.3195 -59.2753 38.6091 58.1471 -34.089 -0 4.22875 -31.5733 154.422 158.731 -167.775 11.3619 -5.91409 -4.11242 170.282 179.998 -171.951 164.4 180 -180 171.905 -145.609 -165.646 168.899 -175.526 171.222 179.136 -180 165.692 175.353 180 -180
 19.6599 54.5662 -43.6073 136.646 63.9206 -143.356 1.11313e-05 -0.000956063 0.667055 171.832 -179.998 -178.888 171.926 -179.994 -178.888 174.835 -179.999 -179.333 176.624 -179.987 -179.778 178.146 178.212 178.345 179.438 175.246 179.909 177.587 -151.83 174.753 33.5447 31.6634 13.921 20.351 -121.51 17.397 -0 21.8151 -34.8454 173.94 -177.271 -168.492 27.7178 15.9395 -59.1619 38.6755 57.834 -34.0158 -0 4.5186 -31.7031 154.462 158.323 -167.801 11.3748 -6.14918 -4.62479 170.192 -179.99 -171.905 164.396 180 -180 171.979 -145.923 -166.036 168.448 -174.982 171.264 178.836 180 165.716 175.334 180 -180
 19.7088 54.625 -43.657 136.629 64.0061 -143.204 2.90901e-05 -0.00262431 0.63509 171.795 -179.995 -178.942 171.898 -179.984 -178.942 174.836 -179.997 -179.365 176.55 -179.987 -179.789 177.969 178.288 178.09 179.385 175.129 179.848 177.743 -151.801 175.094 34.1639 31.9171 13.8757 22.1335 -121.554 19.0669 -0 20.8929 -35.5084 174.016 -177.221 -168.644 26.9456 16.7273 -58.93 39.2667 57.5128 -34.4719 -0 5.1827 -32.0467 154.76 157.999 -168.012 11.3647 -6.78477 -5.04816 169.594 -179.985 -171.851 164.393 180 -180 171.986 -146.105 -166.251 168.113 -174.7 171.496 178.575 179.98 165.728 175.318 180 -180
 19.7411 54.6667 -43.7688 137.033 63.8459 -143.495 180 179.997 -179.395 171.773 179.994 -178.991 171.894 179.983 -178.991 174.879 179.997 -179.395 176.409 -179.987 -179.799 177.585 178.257 177.972 179.269 174.969 179.834 177.678 -151.454 174.952 35.241 31.7089 13.5833 24.2958 -121.544 21.1603 -0 19.7601 -36.3954 174.097 -177.165 -168.808 26.3183 17.3015 -58.7488 39.8478 57.2382 -34.8903 -0 5.75506 -32.2817 154.784 157.985 -168.036 11.4332 -7.86186 -5.00998 169.357 179.98 -171.469 164.39 180 -180 172.145 -146.254 -166.555 168.294 -174.335 171.73 177.997 -179.994 165.688 175.303 180 -180
 19.8006 54.6999 -43.8152 137.465 63.6371 -143.723 1.4377e-05 -0.00149792 0.549906 171.756 -179.997 -179.083 171.887 -179.991 -179.083 174.896 -179.999 -179.45 176.336 -179.988 -179.817 177.392 178.271 177.716 179.212 174.751 179.782 177.8 -151.541 175.219 36.5974 31.5644 13.4748 26.4666 -122.156 22.9697 -0 18.4043 -37.7652 174.184 -177.574 -168.931 26.4248 18.1469 -58.5102 39.7301 56.6637 -34.7173 -0 6.1502 -32.4765 154.517 158.061 -168.255 11.4865 -8.70044 -4.52823 169.562 179.958 -171.162 164.387 180 -180 172.075 -145.947 -166.621 168.678 -174.245 171.274 177.405 179.996 165.711 175.29 180 -180
 19.8012 54.7191 -43.7868 136.983 63.7633 -143.167 5.09322e-05 -0.00567374 0.514321 171.748 -179.989 -179.143 171.86 -179.966 -179.143 174.835 -179.994 -179.486 176.464 -179.989 -179.829 177.767 178.167 177.711 179.324 174.55 179.79 177.529 -151.556 174.627 36.33 31.2731 13.5456 28.6687 -121.902 25.027 -0 17.2811 -38.6545 174.238 -177.784 -169.014 26.2309 18.8173 -57.9384 39.3972 56.052 -34.2893 -0 6.45164 -32.7581 154.766 158.176 -168.799 11.447 -9.52183 -3.96563 169.228 179.972 -170.912 164.385 180 -180 171.931 -145.772 -166.726 169.225 -174.203 171.401 176.974 179.983 165.687 175.277 180 -180
 19.8315 54.7038 -43.8249 136.792 63.8856 -142.945 7.04271e-05 -0.00826025 0.488493 171.746 -179.983 -179.186 171.845 -179.95 -179.186 174.793 -179.992 -179.512 176.559 -179.99 -179.837 178.046 177.963 177.979 179.406 174.452 179.87 177.393 -151.614 174.33 36.0043 31.2485 13.585 30.5718 -121.656 26.7551 -0 16.2863 -39.3344 174.38 -177.956 -169.271 25.9363 19.4217 -57.3012 39.6717 55.794 -34.4667 -0 6.86191 -33.1576 155.006 158.22 -169.265 11.4604 -9.83226 -3.74092 169.237 179.978 -170.685 164.383 180 -180 171.765 -145.306 -166.725 169.819 -173.852 171.505 177.55 179.996 165.672 175.26 180 -180
 19.7829 54.6525 -43.8062 136.658 63.9168 -142.86 6.61322e-05 -0.00807738 0.469089 171.742 -179.984 -179.218 171.831 -179.952 -179.218 174.76 -179.992 -179.531 176.628 -179.991 -179.844 178.257 177.752 178.384 179.467 174.483 179.98 177.238 -151.71 173.994 34.8944 31.2042 13.5483 32.3031 -121.478 28.3353 -0 15.2976 -40.0875 174.548 -178.089 -169.584 25.4295 19.915 -56.2867 40.4261 55.5568 -35.1652 -0 7.52621 -33.727 154.873 158.35 -169.546 11.4166 -9.95846 -3.14488 169.908 179.952 -170.453 164.382 180 -180 171.505 -144.772 -166.99 170.036 -173.303 171.591 178.097 179.991 165.676 175.242 180 -180
 19.6541 54.5932 -43.8887 136.751 63.8649 -142.986 6.46954e-05 -0.00804852 0.460544 171.743 -179.984 -179.232 171.826 -179.952 -179.232 174.741 -179.992 -179.539 176.675 -179.991 -179.847 178.394 177.596 178.785 179.507 174.614 -179.917 177.12 -151.784 173.735 34.03 31.1297 13.5548 34.004 -121.173 29.9038 -0 14.4347 -40.871 174.657 -178.364 -169.769 24.5989 20.6225 -55.3588 41.0234 55.2982 -35.5907 -0 8.08702 -34.4684 154.875 158.338 -169.804 11.2998 -9.67057 -2.73949 170.432 179.978 -170.301 164.381 180 -180 171.194 -144.324 -167.286 170.194 -172.825 171.763 178.546 179.955 165.677 175.227 180 -180
 19.6563 54.5522 -44.0909 136.974 63.7965 -143.189 3.7896e-05 -0.00486333 0.44645 171.74 -179.99 -179.256 171.824 -179.971 -179.256 174.743 -179.995 -179.554 176.664 -179.991 -179.851 178.366 177.31 179.459 179.498 174.793 -179.736 177.035 -151.696 173.551 33.4061 30.9867 13.6349 35.8611 -120.633 31.7624 -0 13.717 -41.5458 174.868 -178.588 -170.158 23.9286 21.1423 -54.5761 42.0221 55.0799 -36.4074 -0 8.89022 -35.0894 155.003 158.155 -170.114 11.1958 -9.38405 -2.4173 170.76 -179.993 -170.25 164.38 180 -180 170.943 -143.936 -167.506 170.285 -172.727 171.581 178.894 179.975 165.675 175.214 180 -180
 19.5673 54.5133 -44.1927 136.937 63.6544 -143.128 3.36968e-05 -0.00454191 0.425074 171.737 -179.991 -179.292 171.814 -179.973 -179.292 174.722 -179.995 -179.575 176.708 -179.992 -179.859 178.496 177.11 179.995 179.538 174.989 -179.599 177.209 -151.534 173.93 33.1922 31.2982 13.7903 37.2114 -120.322 33.1542 -0 13.0345 -41.7646 175.024 -179.05 -170.419 23.2681 21.6676 -53.6208 42.624 54.7466 -36.8925 -0 9.5855 -35.722 155.182 157.913 -170.472 11.131 -9.08031 -2.15329 170.838 -179.984 -170.327 164.379 180 -180 170.745 -143.651 -167.753 170.366 -172.681 171.676 179.117 179.985 165.673 175.203 180 -180
 19.5928 54.4844 -44.2023 136.968 63.6996 -143.218 8.70377e-06 -0.00122211 0.40805 171.741 -179.998 -179.32 171.829 -179.993 -179.32 174.758 -179.999 -179.592 176.632 -179.992 -179.864 178.27 176.902 -179.513 179.471 175.107 -179.464 177.38 -151.542 174.302 33.2022 31.1502 13.9856 37.6394 -120.566 33.5457 -0 12.28 -41.7754 175.116 -179.347 -170.574 22.6064 22.0976 -52.7788 43.2389 54.5392 -37.3961 -0 10.1736 -36.3623 155.343 157.749 -170.6 11.1026 -8.86174 -1.93202 170.865 -179.997 -170.377 164.378 180 -180 170.366 -143.953 -168.099 170.313 -173.811 171.647 179.847 -179.991 165.681 175.192 180 -180
